<mxfile host="65bd71144e">
    <diagram id="XZ_rFUOxNge_jLSgknUN" name="Page-1">
        <mxGraphModel dx="698" dy="539" grid="1" gridSize="10" guides="1" tooltips="1" connect="1" arrows="1" fold="1" page="1" pageScale="1" pageWidth="850" pageHeight="1100" math="0" shadow="0">
            <root>
                <mxCell id="0"/>
                <mxCell id="1" parent="0"/>
                <mxCell id="44" value="" style="rounded=0;whiteSpace=wrap;html=1;opacity=40;" vertex="1" parent="1">
                    <mxGeometry x="620" y="220" width="110" height="220" as="geometry"/>
                </mxCell>
                <mxCell id="5" value="Weatherdata" style="ellipse;whiteSpace=wrap;html=1;" vertex="1" parent="1">
                    <mxGeometry x="140" y="90" width="120" height="80" as="geometry"/>
                </mxCell>
                <mxCell id="6" value="Weatherdata" style="ellipse;whiteSpace=wrap;html=1;" vertex="1" parent="1">
                    <mxGeometry x="150" y="100" width="120" height="80" as="geometry"/>
                </mxCell>
                <mxCell id="20" style="edgeStyle=none;rounded=0;html=1;entryX=0.5;entryY=0;entryDx=0;entryDy=0;" edge="1" parent="1" source="7" target="14">
                    <mxGeometry relative="1" as="geometry">
                        <Array as="points">
                            <mxPoint x="220" y="210"/>
                            <mxPoint x="400" y="210"/>
                        </Array>
                    </mxGeometry>
                </mxCell>
                <mxCell id="7" value="Weatherdata" style="ellipse;whiteSpace=wrap;html=1;" vertex="1" parent="1">
                    <mxGeometry x="160" y="110" width="120" height="80" as="geometry"/>
                </mxCell>
                <mxCell id="8" value="Pollutiondata" style="ellipse;whiteSpace=wrap;html=1;" vertex="1" parent="1">
                    <mxGeometry x="320" y="90" width="120" height="80" as="geometry"/>
                </mxCell>
                <mxCell id="9" value="Pollutiondata" style="ellipse;whiteSpace=wrap;html=1;" vertex="1" parent="1">
                    <mxGeometry x="330" y="100" width="120" height="80" as="geometry"/>
                </mxCell>
                <mxCell id="21" value="" style="edgeStyle=none;rounded=0;html=1;" edge="1" parent="1" source="10" target="14">
                    <mxGeometry relative="1" as="geometry"/>
                </mxCell>
                <mxCell id="10" value="&lt;span lang=&quot;en&quot; class=&quot;HwtZe&quot;&gt;Particulate matter&lt;br&gt;&lt;/span&gt;data" style="ellipse;whiteSpace=wrap;html=1;" vertex="1" parent="1">
                    <mxGeometry x="340" y="110" width="120" height="80" as="geometry"/>
                </mxCell>
                <mxCell id="11" value="&lt;span lang=&quot;en&quot; class=&quot;HwtZe&quot;&gt;Neighboring&lt;br&gt;station's&lt;br&gt;pollution data&lt;br&gt;&lt;/span&gt;" style="ellipse;whiteSpace=wrap;html=1;" vertex="1" parent="1">
                    <mxGeometry x="500" y="90" width="120" height="80" as="geometry"/>
                </mxCell>
                <mxCell id="12" value="&lt;span lang=&quot;en&quot; class=&quot;HwtZe&quot;&gt;Neighboring&lt;br&gt;station's&lt;br&gt;pollution data&lt;br&gt;&lt;/span&gt;" style="ellipse;whiteSpace=wrap;html=1;" vertex="1" parent="1">
                    <mxGeometry x="510" y="100" width="120" height="80" as="geometry"/>
                </mxCell>
                <mxCell id="22" style="edgeStyle=none;rounded=0;html=1;" edge="1" parent="1" source="13">
                    <mxGeometry relative="1" as="geometry">
                        <mxPoint x="400" y="240" as="targetPoint"/>
                        <Array as="points">
                            <mxPoint x="580" y="210"/>
                            <mxPoint x="400" y="210"/>
                        </Array>
                    </mxGeometry>
                </mxCell>
                <mxCell id="13" value="&lt;span lang=&quot;en&quot; class=&quot;HwtZe&quot;&gt;Neighboring&lt;br&gt;station's&lt;br&gt;&lt;span lang=&quot;en&quot; class=&quot;HwtZe&quot;&gt;&lt;span class=&quot;jCAhz ChMk0b&quot;&gt;&lt;span class=&quot;ryNqvb&quot;&gt;particulate matter&lt;/span&gt;&lt;/span&gt;&lt;/span&gt;&amp;nbsp;data&lt;br&gt;&lt;/span&gt;" style="ellipse;whiteSpace=wrap;html=1;" vertex="1" parent="1">
                    <mxGeometry x="520" y="110" width="120" height="80" as="geometry"/>
                </mxCell>
                <mxCell id="23" value="" style="edgeStyle=none;rounded=0;html=1;strokeWidth=1;" edge="1" parent="1" source="14" target="16">
                    <mxGeometry relative="1" as="geometry"/>
                </mxCell>
                <mxCell id="14" value="CNN" style="rounded=0;whiteSpace=wrap;html=1;" vertex="1" parent="1">
                    <mxGeometry x="340" y="240" width="120" height="60" as="geometry"/>
                </mxCell>
                <mxCell id="29" value="" style="edgeStyle=none;rounded=0;html=1;strokeWidth=1;" edge="1" parent="1" source="15" target="28">
                    <mxGeometry relative="1" as="geometry"/>
                </mxCell>
                <mxCell id="15" value="Dense" style="rounded=0;whiteSpace=wrap;html=1;" vertex="1" parent="1">
                    <mxGeometry x="340" y="510" width="120" height="60" as="geometry"/>
                </mxCell>
                <mxCell id="24" value="" style="edgeStyle=none;rounded=0;html=1;strokeWidth=1;" edge="1" parent="1" source="16" target="17">
                    <mxGeometry relative="1" as="geometry"/>
                </mxCell>
                <mxCell id="16" value="LSTM" style="rounded=0;whiteSpace=wrap;html=1;" vertex="1" parent="1">
                    <mxGeometry x="340" y="330" width="120" height="60" as="geometry"/>
                </mxCell>
                <mxCell id="25" value="" style="edgeStyle=none;rounded=0;html=1;strokeWidth=1;" edge="1" parent="1" source="17" target="15">
                    <mxGeometry relative="1" as="geometry"/>
                </mxCell>
                <mxCell id="17" value="Dropout" style="rounded=0;whiteSpace=wrap;html=1;" vertex="1" parent="1">
                    <mxGeometry x="340" y="420" width="120" height="60" as="geometry"/>
                </mxCell>
                <mxCell id="28" value="Output" style="text;html=1;strokeColor=none;fillColor=none;align=center;verticalAlign=middle;whiteSpace=wrap;rounded=0;" vertex="1" parent="1">
                    <mxGeometry x="370" y="620" width="60" height="30" as="geometry"/>
                </mxCell>
                <mxCell id="39" value="" style="edgeStyle=none;rounded=0;html=1;" edge="1" parent="1" source="31" target="35">
                    <mxGeometry relative="1" as="geometry"/>
                </mxCell>
                <mxCell id="31" value="Batch&lt;br&gt;Normalization" style="rounded=0;whiteSpace=wrap;html=1;" vertex="1" parent="1">
                    <mxGeometry x="630" y="240" width="90" height="40" as="geometry"/>
                </mxCell>
                <mxCell id="40" value="" style="edgeStyle=none;rounded=0;html=1;" edge="1" parent="1" source="35" target="36">
                    <mxGeometry relative="1" as="geometry"/>
                </mxCell>
                <mxCell id="35" value="Convolution" style="rounded=0;whiteSpace=wrap;html=1;" vertex="1" parent="1">
                    <mxGeometry x="630" y="300" width="90" height="40" as="geometry"/>
                </mxCell>
                <mxCell id="41" style="edgeStyle=none;rounded=0;html=1;dashed=1;dashPattern=1 1;strokeWidth=2;endArrow=none;endFill=0;" edge="1" parent="1" source="36">
                    <mxGeometry relative="1" as="geometry">
                        <mxPoint x="675" y="410" as="targetPoint"/>
                    </mxGeometry>
                </mxCell>
                <mxCell id="36" value="Pooling" style="rounded=0;whiteSpace=wrap;html=1;" vertex="1" parent="1">
                    <mxGeometry x="630" y="360" width="90" height="40" as="geometry"/>
                </mxCell>
                <mxCell id="43" value="" style="endArrow=classic;html=1;rounded=0;dashed=1;dashPattern=1 1;strokeWidth=2;" edge="1" parent="1">
                    <mxGeometry width="50" height="50" relative="1" as="geometry">
                        <mxPoint x="674.92" y="420" as="sourcePoint"/>
                        <mxPoint x="674.92" y="440" as="targetPoint"/>
                        <Array as="points">
                            <mxPoint x="674.92" y="430"/>
                        </Array>
                    </mxGeometry>
                </mxCell>
                <mxCell id="45" value="" style="edgeStyle=none;rounded=0;html=1;" edge="1" parent="1">
                    <mxGeometry relative="1" as="geometry">
                        <mxPoint x="674.92" y="220.0000000000001" as="sourcePoint"/>
                        <mxPoint x="674.92" y="240.0000000000001" as="targetPoint"/>
                    </mxGeometry>
                </mxCell>
                <mxCell id="46" value="" style="endArrow=none;html=1;rounded=0;strokeWidth=1;exitX=1;exitY=0;exitDx=0;exitDy=0;entryX=0;entryY=0;entryDx=0;entryDy=0;opacity=40;" edge="1" parent="1" source="14" target="44">
                    <mxGeometry width="50" height="50" relative="1" as="geometry">
                        <mxPoint x="520" y="340" as="sourcePoint"/>
                        <mxPoint x="570" y="290" as="targetPoint"/>
                    </mxGeometry>
                </mxCell>
                <mxCell id="47" value="" style="endArrow=none;html=1;rounded=0;strokeWidth=1;exitX=1;exitY=0;exitDx=0;exitDy=0;entryX=0;entryY=1;entryDx=0;entryDy=0;opacity=40;" edge="1" parent="1" target="44">
                    <mxGeometry width="50" height="50" relative="1" as="geometry">
                        <mxPoint x="460" y="300" as="sourcePoint"/>
                        <mxPoint x="600" y="300" as="targetPoint"/>
                    </mxGeometry>
                </mxCell>
            </root>
        </mxGraphModel>
    </diagram>
</mxfile>